<?xml version="1.0" encoding="UTF-8" standalone="no"?>
<svg
   width="128"
   height="128"
   version="1.1"
   id="svg6"
   sodipodi:docname="icon.svg"
   inkscape:version="1.3.2 (091e20ef0f, 2023-11-25, custom)"
   xmlns:inkscape="http://www.inkscape.org/namespaces/inkscape"
   xmlns:sodipodi="http://sodipodi.sourceforge.net/DTD/sodipodi-0.dtd"
   xmlns="http://www.w3.org/2000/svg"
   xmlns:svg="http://www.w3.org/2000/svg">
  <defs
     id="defs6" />
  <sodipodi:namedview
     id="namedview6"
     pagecolor="#ffffff"
     bordercolor="#000000"
     borderopacity="0.25"
     inkscape:showpageshadow="2"
     inkscape:pageopacity="0.0"
     inkscape:pagecheckerboard="0"
     inkscape:deskcolor="#d1d1d1"
     showguides="false"
     inkscape:zoom="4"
     inkscape:cx="88.375"
     inkscape:cy="71.75"
     inkscape:window-width="1366"
     inkscape:window-height="768"
     inkscape:window-x="0"
     inkscape:window-y="0"
     inkscape:window-maximized="1"
     inkscape:current-layer="svg6" />
  <path
     style="display:inline;fill:#ff3106;fill-opacity:1;stroke:#000000;stroke-width:2;stroke-dasharray:none;stroke-opacity:1"
     d="m 62.75,38.75 c 0,0 -17.75,-64.75 -74,-28 l 0.75,20 2.25,81 c 0,0 14.5,13.5 50.25,-2.25 C 77.75,93.75 62.75,38.75 62.75,38.75 Z"
     id="path8"
     sodipodi:nodetypes="ccccsc" />
  <ellipse
     style="fill:#ffffff;fill-opacity:1;stroke:#000000;stroke-width:2;stroke-dasharray:none;stroke-opacity:1"
     id="path6"
     cx="61.625"
     cy="57.375"
     rx="15.375"
     ry="25.625" />
  <path
     style="fill:#ffed09;fill-opacity:1;stroke:#000000;stroke-width:2;stroke-dasharray:none;stroke-opacity:1"
     d="m 45,63.5 c 0,0 0.75,15 18.5,18.5 17.75,3.5 41.75,-7.25 41.75,-7.25 0,0 -22.5,55.75 -108.25,47.75 L -9.25,87.75 Z"
     id="path10"
     sodipodi:nodetypes="cscccc" />
  <ellipse
     style="fill:#ffffff;fill-opacity:1;stroke:#000000;stroke-width:2;stroke-dasharray:none;stroke-opacity:1"
     id="path6-6"
     cx="36.875"
     cy="58.125"
     rx="15.375"
     ry="25.625" />
  <ellipse
     style="fill:#000000;fill-opacity:1;stroke:#000000;stroke-width:2;stroke-dasharray:none;stroke-opacity:1"
     id="path9"
     cx="36.75"
     cy="59.375"
     rx="5"
     ry="10.625" />
  <ellipse
     style="fill:#000000;fill-opacity:1;stroke:#000000;stroke-width:2;stroke-dasharray:none;stroke-opacity:1"
     id="path9-7"
     cx="60"
     cy="58.625"
     rx="5"
     ry="10.625" />
</svg>
